<svg width="72" height="72" xmlns="http://www.w3.org/2000/svg" xmlns:xlink="http://www.w3.org/1999/xlink" xml:space="preserve" overflow="hidden"><defs><linearGradient x1="270.901" y1="306.099" x2="339.099" y2="237.901" gradientUnits="userSpaceOnUse" spreadMethod="pad" id="stroke0"><stop offset="0" stop-color="#C6192E"/><stop offset="0.1" stop-color="#C6192E"/><stop offset="0.9" stop-color="#348097"/><stop offset="1" stop-color="#348097"/></linearGradient><linearGradient x1="307.088" y1="298.11" x2="333.735" y2="271.467" gradientUnits="userSpaceOnUse" spreadMethod="pad" id="fill1"><stop offset="0" stop-color="#C6192E"/><stop offset="0.9" stop-color="#348097"/><stop offset="1" stop-color="#348097"/></linearGradient><linearGradient x1="291.217" y1="285.543" x2="319.408" y2="257.352" gradientUnits="userSpaceOnUse" spreadMethod="pad" id="stroke2"><stop offset="0" stop-color="#C6192E"/><stop offset="0.07" stop-color="#B6253A"/><stop offset="0.34" stop-color="#7E4C62"/><stop offset="0.56" stop-color="#56687F"/><stop offset="0.74" stop-color="#3D7A90"/><stop offset="0.85" stop-color="#348097"/><stop offset="1" stop-color="#348097"/></linearGradient></defs><g transform="translate(-269 -236)"><path d="M334.524 236.762C337.68 236.762 340.238 239.32 340.238 242.476L340.238 301.524C340.238 304.68 337.68 307.238 334.524 307.238L275.476 307.238C272.32 307.238 269.762 304.68 269.762 301.524L269.762 242.476C269.762 239.32 272.32 236.762 275.476 236.762Z" stroke="url(#stroke0)" stroke-width="1.52381" stroke-miterlimit="10" fill="#FFFFFF"/><path d="M284.798 250.579C285.525 250.723 285.997 251.429 285.852 252.155 285.708 252.882 285.003 253.354 284.276 253.21 283.55 253.066 283.078 252.36 283.222 251.633 283.327 251.101 283.744 250.685 284.276 250.579ZM288.04 250.579C288.766 250.723 289.238 251.429 289.094 252.155 288.95 252.882 288.245 253.354 287.518 253.21 286.792 253.066 286.32 252.36 286.464 251.633 286.569 251.101 286.986 250.685 287.518 250.579ZM284.539 250.937C285.069 250.937 285.499 251.367 285.499 251.897 285.499 252.427 285.069 252.857 284.539 252.857 284.009 252.857 283.579 252.427 283.579 251.897 283.579 251.896 283.579 251.895 283.579 251.893 283.579 251.365 284.007 250.937 284.535 250.937 284.536 250.937 284.538 250.937 284.539 250.937Z" fill="#4B4B4B" fill-rule="evenodd"/><path d="M284.276 250.579C284.448 250.544 284.626 250.544 284.798 250.579ZM287.518 250.579C287.69 250.544 287.868 250.544 288.04 250.579ZM286.44 245.368C286.44 244.627 287.04 244.027 287.781 244.027 288.522 244.027 289.122 244.627 289.122 245.368 289.122 246.108 288.522 246.709 287.781 246.709 287.042 246.711 286.442 246.114 286.44 245.375 286.44 245.373 286.44 245.37 286.44 245.368ZM281.362 244.408C281.892 244.406 282.324 244.834 282.326 245.364 282.328 245.894 281.9 246.325 281.37 246.328 280.839 246.33 280.408 245.902 280.406 245.371 280.406 245.37 280.406 245.369 280.406 245.368 280.404 244.84 280.83 244.41 281.358 244.408 281.359 244.408 281.361 244.408 281.362 244.408ZM280.021 245.368C280.021 244.627 280.621 244.027 281.362 244.027 282.102 244.027 282.703 244.627 282.703 245.368 282.703 246.108 282.102 246.709 281.362 246.709 280.623 246.711 280.023 246.114 280.021 245.375 280.021 245.373 280.021 245.37 280.021 245.368ZM284.543 244.408C285.073 244.406 285.505 244.834 285.507 245.364 285.509 245.894 285.081 246.325 284.55 246.328 284.02 246.33 283.589 245.902 283.587 245.371 283.587 245.37 283.587 245.369 283.587 245.368 283.587 244.839 284.014 244.41 284.543 244.408ZM283.202 245.368C283.202 244.627 283.802 244.027 284.543 244.027 285.283 244.027 285.884 244.627 285.884 245.368 285.884 246.108 285.283 246.709 284.543 246.709 283.802 246.709 283.202 246.108 283.202 245.368ZM291.027 247.672C291.557 247.67 291.988 248.098 291.99 248.629 291.993 249.159 291.564 249.59 291.034 249.592 290.504 249.594 290.073 249.166 290.07 248.636 290.07 248.634 290.07 248.631 290.07 248.629 290.073 248.101 290.499 247.674 291.027 247.672ZM289.686 248.629C289.686 247.886 290.288 247.284 291.03 247.284 291.773 247.284 292.375 247.886 292.375 248.629 292.375 249.371 291.773 249.973 291.03 249.973 291.029 249.973 291.028 249.973 291.027 249.973 290.285 249.971 289.686 249.37 289.686 248.629ZM286.44 248.629C286.442 247.888 287.044 247.289 287.785 247.291 288.525 247.294 289.124 247.896 289.122 248.636 289.12 249.375 288.52 249.973 287.781 249.973 287.04 249.973 286.44 249.373 286.44 248.632 286.44 248.631 286.44 248.63 286.44 248.629ZM289.678 245.368C289.676 244.625 290.276 244.021 291.019 244.019 291.762 244.017 292.365 244.617 292.368 245.36 292.37 246.103 291.769 246.706 291.027 246.709 291.025 246.709 291.024 246.709 291.023 246.709 290.282 246.711 289.68 246.112 289.678 245.371 289.678 245.37 289.678 245.369 289.678 245.368Z" fill="#4B4B4B" fill-rule="evenodd"/><path d="M296.371 252.331 295.99 254.427 294.905 254.427 296.897 244.027 298.573 244.027 300.566 254.427 299.423 254.427 299.042 252.331ZM296.52 251.333 298.84 251.333 297.667 245.333Z" fill="#4B4B4B"/><path d="M301.32 254.427 301.32 244.027 302.463 244.027 302.463 253.371 305.434 253.371 305.434 254.427Z" fill="#4B4B4B"/><path d="M307.678 254.427 307.678 245.078 305.773 245.078 305.773 244.027 310.752 244.027 310.752 245.078 308.848 245.078 308.848 254.427Z" fill="#4B4B4B"/><path d="M315.095 248.632 315.095 249.672 312.554 249.672 312.554 253.371 315.674 253.371 315.674 254.427 311.377 254.427 311.377 244.027 315.655 244.027 315.655 245.078 312.535 245.078 312.535 248.632Z" fill="#4B4B4B"/><path d="M316.49 246.537C316.49 244.945 317.274 243.92 318.867 243.92 320.459 243.92 321.259 244.945 321.259 246.537L321.259 251.916C321.259 253.49 320.47 254.53 318.867 254.53 317.263 254.53 316.49 253.49 316.49 251.916ZM317.632 251.973C317.632 252.926 318.032 253.474 318.867 253.474 319.701 253.474 320.097 252.926 320.097 251.973L320.097 246.476C320.097 245.539 319.716 244.975 318.867 244.975 318.017 244.975 317.632 245.539 317.632 246.476Z" fill="#4B4B4B"/><path d="M323.232 254.427 322.192 254.427 322.192 244.027 323.663 244.027 326.07 251.543 326.07 244.027 327.095 244.027 327.095 254.427 325.891 254.427 323.225 246.015Z" fill="#4B4B4B"/><path d="M308.497 299.79C308.497 301.495 307.116 302.876 305.411 302.876 303.707 302.876 302.326 301.495 302.326 299.79 302.326 298.086 303.707 296.705 305.411 296.705 307.116 296.705 308.497 298.086 308.497 299.79Z" fill="url(#fill1)"/><path d="M313.335 283.029C313.335 287.405 309.788 290.952 305.411 290.952 301.035 290.952 297.488 287.405 297.488 283.029 297.488 278.652 301.035 275.105 305.411 275.105 309.786 275.102 313.333 278.647 313.335 283.021 313.335 283.024 313.335 283.026 313.335 283.029ZM305.312 275.139 305.312 261.806M316.17 266.099 327.027 266.099 327.027 277.337M327.027 266.099 312.874 280.267M283.598 277.352 283.598 266.114 294.455 266.114M297.884 280.415 283.598 266.114M305.411 290.949 305.411 296.701M296.92 270.213 305.301 261.832 313.682 270.213" stroke="url(#stroke2)" stroke-width="1.14286" stroke-miterlimit="10" fill="none"/></g></svg>
