<svg width="82" height="48" xmlns="http://www.w3.org/2000/svg" xmlns:xlink="http://www.w3.org/1999/xlink" xml:space="preserve" overflow="hidden"><defs><linearGradient x1="16.8698" y1="55.9861" x2="64.0651" y2="8.79065" gradientUnits="userSpaceOnUse" spreadMethod="pad" id="stroke0"><stop offset="0" stop-color="#C6192E"/><stop offset="0.1" stop-color="#C6192E"/><stop offset="0.9" stop-color="#348097"/><stop offset="1" stop-color="#348097"/></linearGradient></defs><g transform="translate(-83 -223)"><path d="M15 47.1628 66.9767 47.1628C74.8498 47.1944 81.2581 40.838 81.2902 32.9647 81.3191 25.838 76.0805 19.785 69.0233 18.7907L68.3721 18.6977 68.1395 18.0465C65.9921 12.5213 60.6721 8.88219 54.7442 8.88372 54.0595 8.88228 53.3758 8.92893 52.6977 9.02326 52.2121 9.08944 51.7307 9.1826 51.2558 9.30233L50.5116 9.48837 50.0465 8.88372C46.1133 3.72552 39.9983 0.698144 33.5116 0.697674L33.5116 0.697674C23.4321 0.671247 14.8222 7.96112 13.186 17.907L13.0465 18.7442 12.2558 18.8837C9.1574 19.4737 6.34312 21.0772 4.25581 23.4419L4.16279 23.5814C-0.990237 29.5307-0.344726 38.5309 5.60456 43.684 8.21209 45.9425 11.5504 47.1786 15 47.1628Z" stroke="url(#stroke0)" stroke-width="1.39535" stroke-miterlimit="10" fill="none" transform="matrix(1 0 0 1.00024 83 223.064)"/></g></svg>