<svg width="75" height="68" xmlns="http://www.w3.org/2000/svg" xmlns:xlink="http://www.w3.org/1999/xlink" xml:space="preserve" overflow="hidden"><defs><linearGradient x1="5.05552" y1="60.7969" x2="69.9445" y2="-4.11585" gradientUnits="userSpaceOnUse" spreadMethod="pad" id="stroke0"><stop offset="0" stop-color="#C6192E"/><stop offset="0.1" stop-color="#C6192E"/><stop offset="0.9" stop-color="#348097"/><stop offset="1" stop-color="#348097"/></linearGradient></defs><g transform="translate(-88 -220)"><path d="M73.3398 56.022 1.6649 56.022C1.1426 56.0248 0.714237 55.6091 0.701503 55.0867L0.701503 55.0867 0.701503 1.6649C0.701503 1.13283 1.13283 0.701503 1.6649 0.701503L73.3398 0.701503C73.8692 0.701503 74.2985 1.13074 74.2985 1.66022L74.2985 1.66022 74.2985 55.0633C74.2985 55.5927 73.8692 56.022 73.3398 56.022ZM37.5023 56.022 37.5023 66.5445M24.0382 66.4089 50.9759 66.4089M0.701503 48.9836 74.2985 48.9836M44.9196 9.43755 7.09921 9.43755M44.9196 14.7877 7.09921 14.7877M36.6979 20.1378 7.09921 20.1378M44.9196 25.4879 7.09921 25.4879M44.9196 30.8334 7.09921 30.8334M30.5715 36.1835 7.09921 36.1835M68.1253 9.43755 50.6906 9.43755 50.6906 40.0277 68.1253 40.0277Z" stroke="url(#stroke0)" stroke-width="1.40301" stroke-miterlimit="10" fill="none" transform="matrix(1 0 0 1.00741 88 220.196)"/></g></svg>