<svg width="314" height="52" xmlns="http://www.w3.org/2000/svg" xmlns:xlink="http://www.w3.org/1999/xlink" xml:space="preserve" overflow="hidden"><defs><clipPath id="clip0"><rect x="190" y="373" width="314" height="52"/></clipPath></defs><g clip-path="url(#clip0)" transform="translate(-190 -373)"><path d="M54.7538 7.57634C54.7538 3.39204 58.1458-1.79353e-07 62.3302-1.79353e-07 66.5145-1.79353e-07 69.9065 3.39204 69.9065 7.57634 69.9065 11.7607 66.5145 15.1527 62.3302 15.1527 58.1496 15.1564 54.7575 11.7704 54.7538 7.58977 54.7538 7.58527 54.7538 7.58084 54.7538 7.57634Z" transform="matrix(1.01079 0 0 1 190.852 373)"/><path d="M0 7.57634C1.64427e-06 3.39204 3.39204 1.1536e-06 7.57634 2.79787e-06 11.7607 4.44214e-06 15.1527 3.39205 15.1527 7.57634 15.1527 11.7607 11.7607 15.1527 7.57634 15.1527 7.57412 15.1527 7.57184 15.1527 7.56962 15.1527 3.38903 15.1527-1.66721e-06 11.7637-3.31295e-06 7.58305-3.31383e-06 7.58084-2.32054e-06 7.57855-3.33084e-07 7.57634Z" fill="#D2D2D2" transform="matrix(1.01079 0 0 1 190.852 373)"/><path d="M18.1751 7.57634C18.1751 3.39204 21.5672-1.79353e-07 25.7515-1.79353e-07 29.9358-1.79353e-07 33.3278 3.39204 33.3278 7.57634 33.3278 11.7607 29.9358 15.1527 25.7515 15.1527 21.5672 15.1527 18.1751 11.7607 18.1751 7.57634Z" fill="#D2D2D2" transform="matrix(1.01079 0 0 1 190.852 373)"/><path d="M54.7941 26C54.7978 21.8157 58.1928 18.4267 62.3772 18.4304 66.5615 18.4341 69.9508 21.8291 69.9468 26.0134 69.9428 30.1951 66.5521 33.5831 62.3704 33.5831 58.1861 33.5831 54.7941 30.191 54.7941 26.0067 54.7941 26.0045 54.7941 26.0022 54.7941 26Z" fill="#D2D2D2" transform="matrix(1.01079 0 0 1 190.852 373)"/><path d="M36.4443 7.57634C36.4443 3.39204 39.8364-1.79353e-07 44.0207-1.79353e-07 48.205-1.79353e-07 51.597 3.39204 51.597 7.57634 51.597 11.7607 48.205 15.1527 44.0207 15.1527 39.8379 15.149 36.448 11.7591 36.4443 7.57634Z" fill="#B4121B" transform="matrix(1.01079 0 0 1 190.852 373)"/><path d="M36.4443 26C36.448 21.8157 39.8431 18.4267 44.0274 18.4304 48.2117 18.4341 51.6007 21.8291 51.597 26.0134 51.5933 30.1951 48.2024 33.5831 44.0207 33.5831 39.8353 33.5794 36.4443 30.1854 36.4443 26Z" fill="#FAAF3F" transform="matrix(1.01079 0 0 1 190.852 373)"/><path d="M18.3766 44.4304C18.373 40.2461 21.762 36.851 25.9463 36.8473 30.1306 36.8436 33.5256 40.2326 33.5293 44.4169 33.533 48.6013 30.144 51.9963 25.9597 52 25.9575 52 25.9552 52 25.953 52 21.7724 52.0037 18.3803 48.6176 18.3766 44.4371 18.3766 44.4349 18.3766 44.4326 18.3766 44.4304Z" fill="#D2D2D2" transform="matrix(1.01079 0 0 1 190.852 373)"/><path d="M36.4443 44.3968C36.4406 40.2125 39.8296 36.8174 44.014 36.8137 48.1983 36.8101 51.5933 40.1991 51.597 44.3834 51.6007 48.5677 48.2117 51.9627 44.0274 51.9664 44.0252 51.9664 44.0229 51.9664 44.0207 51.9664 39.839 51.9664 36.448 48.5785 36.4443 44.3968Z" fill="#00853F" transform="matrix(1.01079 0 0 1 190.852 373)"/><path d="M104.551 20.2371 104.551 15.3407 97.1155 15.3407C87.9137 15.3407 85.3547 14.7833 85.3547 24.2604L85.3547 51.7179 90.9228 51.7179 90.9228 20.264Z" fill-rule="evenodd" transform="matrix(1.01079 0 0 1 190.852 373)"/><path d="M113.544 15.1594 113.544 20.4454C126.978 20.4454 129.375 21.0633 129.375 28.0217L119.3 28.0217C111.61 28.0217 107.211 29.4658 107.211 39.9638 107.176 41.6954 107.374 43.4237 107.802 45.102L107.802 45.102C109.299 50.4753 113.497 51.4761 119.025 51.4761 122.934 51.4761 127.481 51.3216 129.261 46.9827L129.261 51.6104 134.964 51.6104 134.964 27.4306C134.937 14.9176 126.111 15.1594 113.544 15.1594ZM127.045 45.102C125.332 46.3983 122.773 46.4454 120.234 46.4454 117.427 46.4454 115.479 46.3379 114.29 45.102L114.29 45.102C113.329 44.0946 112.873 42.3348 112.873 39.272 112.873 33.4689 114.988 33.0189 120.261 33.0592 124.183 33.0592 129.127 33.0592 129.127 33.0592L129.127 39.7758C129.127 42.5564 128.321 44.1819 127.065 45.1491L127.065 45.1491Z" fill-rule="evenodd" transform="matrix(1.01079 0 0 1 190.852 373)"/><path d="M165.786 1.97468 165.786 15.1594 154.905 15.1594C142.869 15.1594 141.72 22.7089 141.72 33.4219 141.72 38.0496 141.935 42.046 143.131 45.102L143.131 45.102C144.723 49.1925 148.054 51.5903 154.912 51.5903 164.678 51.5903 165.793 46.4521 165.793 46.4521L165.793 51.6104 171.381 51.6104 171.381 1.97468ZM162.804 45.102C161.461 45.9954 159.58 46.3312 156.913 46.3312 154.247 46.3312 152.151 46.1163 150.741 45.102L150.741 45.102C148.652 43.6042 147.873 40.3601 147.873 33.536 147.873 21.9902 149.572 20.667 156.913 20.667 161.924 20.667 165.8 20.6133 165.793 20.667 165.793 22.7223 165.793 30.265 165.793 33.5226 165.793 40.0579 165.222 43.4833 162.824 45.0953L162.824 45.0953Z" fill-rule="evenodd" transform="matrix(1.01079 0 0 1 190.852 373)"/><path d="M221.742 15.1594 216.396 15.1594 210.445 40.7362 201.928 15.1594 197.314 15.1594 189.019 40.7362 182.631 15.1594 176.895 15.1594 185.835 51.6104 190.987 51.6104 199.463 24.1395 208 51.6104 213.172 51.6104 221.742 15.1594Z" fill-rule="evenodd" transform="matrix(1.01079 0 0 1 190.852 373)"/><path d="M229.614 15.1594 229.614 20.4454C243.047 20.4454 245.445 21.0633 245.445 28.0217L235.37 28.0217C227.686 28.0217 223.28 29.4658 223.28 39.9638 223.247 41.6956 223.448 43.424 223.878 45.102L223.878 45.102C225.369 50.4753 229.567 51.4761 235.102 51.4761 239.004 51.4761 243.558 51.3216 245.331 46.9827L245.331 51.6104 251.047 51.6104 251.047 27.4306C251.013 14.9176 242.181 15.1594 229.614 15.1594ZM243.141 45.102C241.429 46.3983 238.87 46.4454 236.331 46.4454 233.53 46.4454 231.575 46.3379 230.386 45.102L230.386 45.102C229.426 44.0946 228.963 42.3348 228.963 39.272 228.963 33.4689 231.085 33.0189 236.351 33.0592 240.273 33.0592 245.223 33.0592 245.223 33.0592L245.223 39.7758C245.223 42.5564 244.424 44.1819 243.161 45.1491L243.161 45.1491Z" fill-rule="evenodd" transform="matrix(1.01079 0 0 1 190.852 373)"/><path d="M276.187 20.2371 276.187 15.3407 268.752 15.3407C259.557 15.3407 256.998 14.7833 256.998 24.2604L256.998 51.7179 262.559 51.7179 262.559 20.264Z" fill-rule="evenodd" transform="matrix(1.01079 0 0 1 190.852 373)"/><path d="M294.235 14.6153C279.512 14.6153 274.756 34.3084 281.849 45.102L281.849 45.102C284.61 49.3134 289.157 52.1679 295.625 51.9866 299.985 51.871 304.273 50.8509 308.219 48.991 308.219 48.991 308.219 43.1475 308.219 43.1274 306.82 43.9485 305.333 44.6087 303.786 45.0953L303.786 45.0953C299.601 46.4386 293.818 47.3387 289.681 45.0953L289.681 45.0953C286.618 43.4363 284.442 40.0914 284.442 33.9995L308.816 33.9995C308.816 33.9995 311.684 14.6153 294.235 14.6153ZM284.475 28.7874C284.925 25.6843 287.021 19.5521 294.55 19.5521 302.08 19.5521 303.282 25.4492 303.389 28.7874Z" fill-rule="evenodd" transform="matrix(1.01079 0 0 1 190.852 373)"/></g></svg>